<svg width="414" height="415" viewBox="0 0 414 415" fill="none" xmlns="http://www.w3.org/2000/svg">
<g clip-path="url(#clip0)">
<path d="M414 0H0V415H414V0Z" fill="#5C97FB"/>
<path d="M193.117 86.347C190.344 86.3467 187.577 86.6234 184.859 87.173C183.847 82.1244 181.704 77.371 178.59 73.2702C175.476 69.1695 171.473 65.8281 166.882 63.4974C162.29 61.1667 157.23 59.9074 152.082 59.8141C146.934 59.7209 141.832 60.7961 137.159 62.959C132.985 51.7065 124.53 42.5613 113.64 37.5183C102.749 32.4752 90.3058 31.9436 79.0246 36.0393C67.7434 40.135 58.5396 48.5257 53.4209 59.3811C48.3021 70.2364 47.6839 82.6755 51.701 93.985C41.805 94.358 32.448 98.5896 25.6325 105.774C18.8169 112.959 15.0841 122.526 15.233 132.428C15.3818 142.33 19.4004 151.78 26.4289 158.757C33.4573 165.733 42.9372 169.682 52.84 169.757H193.12C204.181 169.757 214.789 165.363 222.61 157.542C230.431 149.721 234.825 139.113 234.825 128.052C234.825 116.991 230.431 106.383 222.61 98.5621C214.789 90.7409 204.181 86.347 193.12 86.347H193.117Z" fill="white"/>
<path opacity="0.52" d="M260.076 79.6681C257.646 79.6676 255.222 79.9098 252.84 80.3911C251.954 75.9668 250.075 71.8012 247.347 68.2075C244.618 64.6138 241.11 61.6857 237.087 59.6433C233.063 57.6009 228.629 56.4975 224.117 56.4161C219.606 56.3346 215.135 57.2773 211.04 59.1731C207.38 49.3166 199.971 41.3071 190.429 36.8909C180.887 32.4747 169.986 32.0101 160.104 35.5983C150.221 39.1865 142.157 46.5366 137.671 56.0458C133.185 65.5551 132.641 76.4522 136.157 86.3611C127.42 86.5941 119.127 90.2623 113.077 96.57C107.028 102.878 103.708 111.316 103.84 120.055C103.972 128.794 107.543 137.129 113.78 143.252C120.018 149.374 128.417 152.791 137.157 152.761H260.076C269.768 152.761 279.063 148.911 285.917 142.058C292.77 135.204 296.62 125.909 296.62 116.217C296.62 106.525 292.77 97.2299 285.917 90.3766C279.063 83.5232 269.768 79.6731 260.076 79.6731V79.6681Z" fill="white"/>
<path d="M344.514 193.583C346.26 193.583 348.002 193.757 349.714 194.103C350.351 190.925 351.7 187.933 353.661 185.351C355.621 182.77 358.141 180.666 361.031 179.199C363.921 177.732 367.106 176.939 370.347 176.88C373.587 176.821 376.799 177.498 379.741 178.859C382.345 171.743 387.664 165.95 394.533 162.75C401.402 159.551 409.26 159.207 416.382 161.792C423.505 164.378 429.311 169.683 432.528 176.544C435.745 183.405 436.109 191.262 433.541 198.391C439.796 198.589 445.723 201.237 450.043 205.765C454.364 210.292 456.733 216.336 456.639 222.593C456.545 228.851 453.995 234.821 449.541 239.216C445.086 243.612 439.082 246.081 432.824 246.091H344.514C341.053 246.112 337.621 245.449 334.417 244.139C331.213 242.829 328.299 240.899 325.844 238.459C323.389 236.019 321.441 233.117 320.111 229.921C318.781 226.725 318.097 223.298 318.097 219.836C318.097 216.375 318.781 212.948 320.111 209.752C321.441 206.556 323.389 203.654 325.844 201.214C328.299 198.774 331.213 196.844 334.417 195.534C337.621 194.224 341.053 193.561 344.514 193.582V193.583Z" fill="white"/>
<path d="M-19.239 255.185C-16.994 255.185 -14.7545 255.408 -12.554 255.853C-11.7345 251.766 -9.99911 247.919 -7.47838 244.6C-4.95765 241.28 -1.71718 238.576 1.99938 236.689C5.71593 234.803 9.81184 233.783 13.9791 233.708C18.1464 233.632 22.2765 234.502 26.059 236.253C27.7081 231.71 30.2357 227.537 33.4977 223.971C36.7596 220.406 40.6919 217.517 45.0701 215.471C49.4483 213.425 54.1866 212.261 59.0145 212.047C63.8424 211.832 68.6654 212.57 73.208 214.219C77.7506 215.868 81.924 218.396 85.4897 221.658C89.0555 224.92 91.9438 228.852 93.9899 233.23C96.0359 237.608 97.1996 242.347 97.4144 247.175C97.6293 252.002 96.8911 256.825 95.242 261.368C103.288 261.62 110.913 265.024 116.472 270.846C122.03 276.668 125.078 284.442 124.957 292.491C124.836 300.54 121.556 308.219 115.825 313.872C110.093 319.524 102.37 322.697 94.32 322.707H-19.239C-28.193 322.707 -36.7802 319.15 -43.1116 312.819C-49.443 306.487 -53 297.9 -53 288.946C-53 279.992 -49.443 271.405 -43.1116 265.073C-36.7802 258.742 -28.193 255.185 -19.239 255.185V255.185Z" fill="white"/>
</g>
<defs>
<clipPath id="clip0">
<rect width="414" height="415" fill="white"/>
</clipPath>
</defs>
</svg>
